<svg width="23" height="22" viewBox="0 0 23 22" fill="none" xmlns="http://www.w3.org/2000/svg">
<path d="M4.26937 0.513333C4.40434 0.352344 4.57188 0.223096 4.76047 0.13448C4.94907 0.045865 5.15424 -1.39343e-05 5.36188 3.17458e-09H17.6381C17.8458 -1.39343e-05 18.0509 0.045865 18.2395 0.13448C18.4281 0.223096 18.5957 0.352344 18.7306 0.513333L22.4811 4.97787C22.8159 5.37655 23 5.88428 23 6.40933V6.78333C23.0001 7.5093 22.7778 8.21715 22.3644 8.80795C21.9509 9.39876 21.3668 9.84299 20.6938 10.0786C20.0208 10.3141 19.2924 10.3293 18.6105 10.1219C17.9287 9.91445 17.3273 9.49486 16.8906 8.92173C16.5718 9.34094 16.1631 9.68011 15.6959 9.91323C15.2287 10.1464 14.7154 10.2673 14.1953 10.2667C13.6752 10.2673 13.1619 10.1464 12.6947 9.91323C12.2275 9.68011 11.8188 9.34094 11.5 8.92173C11.1812 9.34094 10.7725 9.68011 10.3053 9.91323C9.83807 10.1464 9.32477 10.2673 8.80469 10.2667C8.28461 10.2673 7.7713 10.1464 7.30411 9.91323C6.83691 9.68011 6.42822 9.34094 6.10938 8.92173C5.67265 9.49486 5.07133 9.91445 4.38946 10.1219C3.70759 10.3293 2.97924 10.3141 2.30622 10.0786C1.63319 9.84299 1.04912 9.39876 0.635637 8.80795C0.222154 8.21715 -7.84854e-05 7.5093 2.07928e-08 6.78333V6.40933C1.81233e-05 5.88428 0.184081 5.37655 0.518938 4.97787L4.26937 0.513333ZM6.82812 6.78333C6.82812 7.31819 7.03637 7.83113 7.40705 8.20933C7.77772 8.58753 8.28047 8.8 8.80469 8.8C9.3289 8.8 9.83165 8.58753 10.2023 8.20933C10.573 7.83113 10.7812 7.31819 10.7812 6.78333C10.7812 6.58884 10.857 6.40231 10.9918 6.26479C11.1266 6.12726 11.3094 6.05 11.5 6.05C11.6906 6.05 11.8734 6.12726 12.0082 6.26479C12.143 6.40231 12.2188 6.58884 12.2188 6.78333C12.2188 7.31819 12.427 7.83113 12.7977 8.20933C13.1683 8.58753 13.6711 8.8 14.1953 8.8C14.7195 8.8 15.2223 8.58753 15.593 8.20933C15.9636 7.83113 16.1719 7.31819 16.1719 6.78333C16.1719 6.58884 16.2476 6.40231 16.3824 6.26479C16.5172 6.12726 16.7 6.05 16.8906 6.05C17.0812 6.05 17.2641 6.12726 17.3989 6.26479C17.5336 6.40231 17.6094 6.58884 17.6094 6.78333C17.6094 7.31819 17.8176 7.83113 18.1883 8.20933C18.559 8.58753 19.0617 8.8 19.5859 8.8C20.1102 8.8 20.6129 8.58753 20.9836 8.20933C21.3543 7.83113 21.5625 7.31819 21.5625 6.78333V6.40933C21.5625 6.23455 21.5013 6.0655 21.39 5.93267L17.6381 1.46667H5.36188L1.61 5.93267C1.49866 6.0655 1.43749 6.23455 1.4375 6.40933V6.78333C1.4375 7.31819 1.64574 7.83113 2.01642 8.20933C2.3871 8.58753 2.88985 8.8 3.41406 8.8C3.93828 8.8 4.44103 8.58753 4.8117 8.20933C5.18238 7.83113 5.39062 7.31819 5.39062 6.78333C5.39062 6.58884 5.46635 6.40231 5.60114 6.26479C5.73593 6.12726 5.91875 6.05 6.10938 6.05C6.3 6.05 6.48282 6.12726 6.61761 6.26479C6.7524 6.40231 6.82812 6.58884 6.82812 6.78333ZM2.15625 11C2.34687 11 2.52969 11.0773 2.66448 11.2148C2.79927 11.3523 2.875 11.5388 2.875 11.7333V20.5333H20.125V11.7333C20.125 11.5388 20.2007 11.3523 20.3355 11.2148C20.4703 11.0773 20.6531 11 20.8438 11C21.0344 11 21.2172 11.0773 21.352 11.2148C21.4868 11.3523 21.5625 11.5388 21.5625 11.7333V20.5333H22.2812C22.4719 20.5333 22.6547 20.6106 22.7895 20.7481C22.9243 20.8856 23 21.0722 23 21.2667C23 21.4612 22.9243 21.6477 22.7895 21.7852C22.6547 21.9227 22.4719 22 22.2812 22H0.71875C0.528126 22 0.345309 21.9227 0.210517 21.7852C0.0757253 21.6477 2.07928e-08 21.4612 2.07928e-08 21.2667C2.07928e-08 21.0722 0.0757253 20.8856 0.210517 20.7481C0.345309 20.6106 0.528126 20.5333 0.71875 20.5333H1.4375V11.7333C1.4375 11.5388 1.51323 11.3523 1.64802 11.2148C1.78281 11.0773 1.96563 11 2.15625 11ZM5.03125 11.7333C5.22187 11.7333 5.40469 11.8106 5.53948 11.9481C5.67427 12.0856 5.75 12.2722 5.75 12.4667V17.6H17.25V12.4667C17.25 12.2722 17.3257 12.0856 17.4605 11.9481C17.5953 11.8106 17.7781 11.7333 17.9688 11.7333C18.1594 11.7333 18.3422 11.8106 18.477 11.9481C18.6118 12.0856 18.6875 12.2722 18.6875 12.4667V17.6C18.6875 17.989 18.536 18.362 18.2665 18.6371C17.9969 18.9121 17.6312 19.0667 17.25 19.0667H5.75C5.36875 19.0667 5.00312 18.9121 4.73353 18.6371C4.46395 18.362 4.3125 17.989 4.3125 17.6V12.4667C4.3125 12.2722 4.38823 12.0856 4.52302 11.9481C4.65781 11.8106 4.84063 11.7333 5.03125 11.7333Z" fill="#7C8DB5"/>
</svg>
